<?xml version="1.0" encoding="UTF-8" standalone="no"?>
<svg
   version="1.1"
   viewBox="0 0 80 80"
   id="svg135"
   sodipodi:docname="icon.svg"
   width="80"
   height="80"
   inkscape:version="1.2 (dc2aedaf03, 2022-05-15)"
   inkscape:export-filename="icon_16.png"
   inkscape:export-xdpi="19.200001"
   inkscape:export-ydpi="19.200001"
   xmlns:inkscape="http://www.inkscape.org/namespaces/inkscape"
   xmlns:sodipodi="http://sodipodi.sourceforge.net/DTD/sodipodi-0.dtd"
   xmlns="http://www.w3.org/2000/svg"
   xmlns:svg="http://www.w3.org/2000/svg">
  <defs
     id="defs139" />
  <sodipodi:namedview
     id="namedview137"
     pagecolor="#ffffff"
     bordercolor="#000000"
     borderopacity="0.25"
     inkscape:showpageshadow="2"
     inkscape:pageopacity="0.0"
     inkscape:pagecheckerboard="0"
     inkscape:deskcolor="#d1d1d1"
     showgrid="true"
     inkscape:zoom="4.27"
     inkscape:cx="68.969555"
     inkscape:cy="41.686183"
     inkscape:window-width="1409"
     inkscape:window-height="897"
     inkscape:window-x="414"
     inkscape:window-y="128"
     inkscape:window-maximized="0"
     inkscape:current-layer="svg135">
    <inkscape:grid
       type="xygrid"
       id="grid1752"
       originx="0"
       originy="0" />
  </sodipodi:namedview>
  <path
     id="rect6042"
     style="fill:#5b5b5b;fill-opacity:1;stroke-width:4;stroke-linecap:round;stroke-linejoin:round;paint-order:markers fill stroke"
     d="M 20 0 C 14.460023 0 10 4.460022 10 10 L 10 15 C 10 9.460022 5.5399775 5 0 5 L 0 80 L 10 80 L 70 80 L 80 80 L 80 5 C 74.460024 5 70 9.460022 70 15 L 70 10 C 70 4.460022 65.539976 0 60 0 L 20 0 z " />
  <path
     id="path6047"
     style="fill:#b3b3b3;fill-opacity:1"
     d="M 0 10 L 0 80 L 5 80 L 5 15 C 4.999724 12.238706 2.7612944 10.0003 0 10 z M 80 10 C 77.238706 10.000276 75.0003 12.238706 75 15 L 75 80 L 80 80 L 80 10 z " />
  <path
     d="m 20,5 c -2.7613,2.76e-4 -4.9997,2.2387 -5,5 V 80 H 65 V 10 C 64.999724,7.2387 62.7613,5.0003 60,5 Z"
     fill="#4d4d4d"
     id="path2655"
     style="fill:#f2f2f2;fill-opacity:1"
     sodipodi:nodetypes="ccccccc" />
  <path
     id="rect2661"
     style="fill:#5b5b5b;stroke-linecap:round;stroke-linejoin:round;paint-order:markers fill stroke;fill-opacity:1"
     d="M 35 20 L 35 35 L 20 35 L 20 45 L 35 45 L 35 60 L 45 60 L 45 45 L 60 45 L 60 35 L 45 35 L 45 20 L 35 20 z " />
</svg>
